<?xml version="1.0" encoding="UTF-8"?>
<svg xmlns="http://www.w3.org/2000/svg" xmlns:xlink="http://www.w3.org/1999/xlink" width="100pt" height="100pt" viewBox="0 0 100 100" version="1.1">
<g id="surface833446">
<path style=" stroke:none;fill-rule:nonzero;fill:#000000;fill-opacity:1;" d="M 42 6 C 23.242188 6 8 21.242188 8 40 C 8 58.757812 23.242188 74 42 74 C 49.421875 74 56.28125 71.609375 61.875 67.5625 L 88.1875 93.8125 L 93.8125 88.1875 L 67.8125 62.125 C 72.921875 56.171875 76 48.445312 76 40 C 76 21.242188 60.757812 6 42 6 Z M 42 10 C 58.59375 10 72 23.40625 72 40 C 72 56.59375 58.59375 70 42 70 C 25.40625 70 12 56.59375 12 40 C 12 23.40625 25.40625 10 42 10 Z M 42 10 "/>
</g>
</svg>
